<?xml version="1.0" encoding="UTF-8"?>
<svg xmlns="http://www.w3.org/2000/svg" xmlns:xlink="http://www.w3.org/1999/xlink" width="117.5216pt" height="76.6965pt" viewBox="0 0 117.5216 76.6965" version="1.1">
<g id="surface1">
<path style=" stroke:none;fill-rule:nonzero;fill:rgb(21.960449%,57.647705%,60.784912%);fill-opacity:1;" d="M 22.808594 41.941406 L 31.941406 41.542969 C 32.238281 41.542969 32.476562 41.304688 32.476562 41.007812 C 32.476562 40.710938 32.238281 40.472656 31.941406 40.472656 L 22.808594 40.078125 Z M 22.808594 41.941406 "/>
<path style=" stroke:none;fill-rule:nonzero;fill:rgb(21.960449%,57.647705%,60.784912%);fill-opacity:1;" d="M 24.609375 48.40625 L 30.257812 46.0625 C 30.527344 45.9375 30.84375 46.050781 30.96875 46.320312 C 31.09375 46.589844 30.980469 46.910156 30.710938 47.035156 L 25.539062 49.726562 Z M 24.609375 48.40625 "/>
<path style=" stroke:none;fill-rule:nonzero;fill:rgb(21.960449%,57.647705%,60.784912%);fill-opacity:1;" d="M 22.984375 44.089844 L 31.617188 42.949219 C 31.910156 42.898438 32.1875 43.09375 32.238281 43.382812 C 32.289062 43.675781 32.09375 43.953125 31.804688 44.003906 L 23.394531 45.871094 Z M 22.984375 44.089844 "/>
<path style=" stroke:none;fill-rule:nonzero;fill:rgb(21.960449%,57.647705%,60.784912%);fill-opacity:1;" d="M 23.410156 36.050781 L 31.800781 37.90625 C 32.089844 37.957031 32.285156 38.234375 32.234375 38.527344 C 32.183594 38.820312 31.90625 39.011719 31.613281 38.960938 L 22.953125 37.820312 Z M 23.410156 36.050781 "/>
<path style=" stroke:none;fill-rule:nonzero;fill:rgb(21.960449%,57.647705%,60.784912%);fill-opacity:1;" d="M 25.425781 32.292969 L 30.597656 34.984375 C 30.867188 35.109375 30.984375 35.429688 30.859375 35.695312 C 30.734375 35.964844 30.414062 36.082031 30.144531 35.957031 L 24.523438 33.628906 Z M 25.425781 32.292969 "/>
<path style=" stroke:none;fill-rule:nonzero;fill:rgb(58.432007%,75.294495%,77.255249%);fill-opacity:1;" d="M 31.636719 5.414062 L 28.875 6.738281 L 28.875 8.601562 L 32.269531 6.597656 C 32.597656 6.421875 32.71875 6.015625 32.546875 5.691406 C 32.371094 5.363281 31.964844 5.242188 31.636719 5.414062 M 33.515625 6.988281 L 28.875 9.214844 L 28.875 11.285156 L 34.148438 8.171875 C 34.472656 7.996094 34.597656 7.589844 34.421875 7.265625 C 34.25 6.9375 33.84375 6.816406 33.515625 6.988281 M 28.875 4.457031 L 28.875 6.125 L 30.523438 5.152344 C 30.847656 4.976562 30.972656 4.574219 30.796875 4.246094 C 30.625 3.917969 30.21875 3.796875 29.890625 3.96875 Z M 35.523438 8.683594 L 28.875 11.867188 L 28.875 14.164062 L 36.15625 9.867188 C 36.480469 9.691406 36.605469 9.285156 36.429688 8.960938 C 36.257812 8.632812 35.851562 8.507812 35.523438 8.683594 M 36.972656 14.003906 L 28.875 17.882812 L 28.875 20.339844 L 37.601562 15.1875 C 37.929688 15.011719 38.050781 14.605469 37.878906 14.28125 C 37.703125 13.953125 37.296875 13.828125 36.972656 14.003906 M 33.496094 20.589844 L 28.875 22.800781 L 28.875 24.875 L 34.125 21.769531 C 34.453125 21.597656 34.578125 21.191406 34.402344 20.863281 C 34.226562 20.539062 33.820312 20.414062 33.496094 20.589844 M 35.203125 17.40625 L 28.875 20.433594 L 28.875 22.695312 L 35.832031 18.585938 C 36.160156 18.414062 36.28125 18.007812 36.109375 17.679688 C 35.933594 17.351562 35.527344 17.230469 35.203125 17.40625 M 31.925781 23.566406 L 28.875 25.027344 L 28.875 26.921875 L 32.554688 24.75 C 32.882812 24.574219 33.007812 24.167969 32.832031 23.839844 C 32.65625 23.515625 32.25 23.390625 31.925781 23.566406 M 37.585938 10.566406 L 28.875 14.742188 L 28.875 17.265625 L 38.21875 11.75 C 38.546875 11.574219 38.667969 11.167969 38.496094 10.84375 C 38.320312 10.515625 37.914062 10.390625 37.585938 10.566406 "/>
<path style=" stroke:none;fill-rule:nonzero;fill:rgb(21.960449%,57.647705%,60.784912%);fill-opacity:1;" d="M 25.195312 5.695312 C 25.023438 6.023438 25.144531 6.429688 25.472656 6.601562 L 28.867188 8.609375 L 28.867188 6.746094 L 26.101562 5.421875 C 25.777344 5.246094 25.371094 5.371094 25.195312 5.695312 M 23.316406 7.269531 C 23.144531 7.597656 23.265625 8.003906 23.59375 8.175781 L 28.867188 11.289062 L 28.867188 9.21875 L 24.226562 6.996094 C 23.898438 6.820312 23.492188 6.945312 23.316406 7.269531 M 27.847656 3.976562 C 27.523438 3.800781 27.117188 3.925781 26.941406 4.25 C 26.769531 4.578125 26.890625 4.984375 27.21875 5.15625 L 28.867188 6.132812 L 28.867188 4.464844 Z M 21.308594 8.964844 C 21.136719 9.289062 21.261719 9.695312 21.585938 9.871094 L 28.867188 14.171875 L 28.867188 11.875 L 22.21875 8.6875 C 21.890625 8.515625 21.484375 8.636719 21.308594 8.964844 M 19.863281 14.285156 C 19.6875 14.609375 19.8125 15.015625 20.140625 15.191406 L 28.867188 20.347656 L 28.867188 17.886719 L 20.769531 14.007812 C 20.441406 13.835938 20.039062 13.957031 19.863281 14.285156 M 23.339844 20.871094 C 23.164062 21.195312 23.289062 21.601562 23.617188 21.777344 L 28.867188 24.878906 L 28.867188 22.808594 L 24.246094 20.59375 C 23.921875 20.417969 23.515625 20.542969 23.339844 20.871094 M 21.632812 17.6875 C 21.457031 18.011719 21.582031 18.417969 21.910156 18.59375 L 28.867188 22.703125 L 28.867188 20.441406 L 22.539062 17.410156 C 22.214844 17.234375 21.808594 17.359375 21.632812 17.6875 M 24.910156 23.847656 C 24.734375 24.171875 24.859375 24.578125 25.183594 24.753906 L 28.867188 26.929688 L 28.867188 25.03125 L 25.816406 23.570312 C 25.488281 23.398438 25.085938 23.519531 24.910156 23.847656 M 19.246094 10.847656 C 19.074219 11.175781 19.195312 11.578125 19.523438 11.753906 L 28.867188 17.273438 L 28.867188 14.746094 L 20.152344 10.570312 C 19.828125 10.398438 19.421875 10.519531 19.246094 10.847656 "/>
<path style=" stroke:none;fill-rule:nonzero;fill:rgb(21.960449%,57.647705%,60.784912%);fill-opacity:1;" d="M 36.722656 14.773438 L 38.757812 22.824219 C 39.335938 22.429688 39.925781 22.03125 40.519531 21.628906 L 38.007812 14.390625 C 37.902344 14.035156 37.527344 13.835938 37.171875 13.941406 C 36.820312 14.046875 36.617188 14.421875 36.722656 14.773438 M 33.226562 21.292969 L 34.378906 25.855469 C 34.851562 25.523438 35.347656 25.175781 35.867188 24.816406 L 34.511719 20.910156 C 34.40625 20.554688 34.03125 20.355469 33.675781 20.460938 C 33.320312 20.566406 33.121094 20.941406 33.226562 21.292969 M 38.691406 11.679688 L 41.105469 21.230469 C 41.730469 20.808594 42.359375 20.386719 42.988281 19.964844 L 39.976562 11.296875 C 39.871094 10.941406 39.496094 10.738281 39.144531 10.847656 C 38.789062 10.953125 38.585938 11.324219 38.691406 11.679688 M 31.671875 24.332031 L 32.414062 27.261719 C 32.828125 26.960938 33.28125 26.632812 33.769531 26.285156 L 32.957031 23.949219 C 32.851562 23.59375 32.476562 23.390625 32.125 23.5 C 31.769531 23.605469 31.566406 23.976562 31.671875 24.332031 M 30.148438 27.105469 L 30.546875 28.6875 C 30.859375 28.429688 31.277344 28.105469 31.78125 27.730469 L 31.429688 26.722656 C 31.324219 26.367188 30.953125 26.167969 30.597656 26.273438 C 30.242188 26.378906 30.042969 26.753906 30.148438 27.105469 M 34.929688 18.144531 L 36.503906 24.375 C 37.027344 24.011719 37.570312 23.636719 38.125 23.257812 L 36.214844 17.761719 C 36.109375 17.40625 35.734375 17.207031 35.378906 17.3125 C 35.027344 17.417969 34.824219 17.789062 34.929688 18.144531 M 49.527344 11.679688 L 50.378906 15.039062 C 50.882812 14.707031 51.355469 14.394531 51.789062 14.109375 L 50.8125 11.296875 C 50.707031 10.941406 50.332031 10.738281 49.976562 10.847656 C 49.625 10.953125 49.421875 11.324219 49.527344 11.679688 M 51.90625 11.679688 L 52.414062 13.695312 C 52.9375 13.351562 53.378906 13.058594 53.722656 12.832031 L 53.191406 11.296875 C 53.085938 10.941406 52.710938 10.738281 52.355469 10.847656 C 52.003906 10.953125 51.800781 11.324219 51.90625 11.679688 M 47.035156 11.679688 L 48.242188 16.457031 C 48.769531 16.105469 49.277344 15.769531 49.761719 15.449219 L 48.320312 11.296875 C 48.214844 10.941406 47.839844 10.738281 47.484375 10.847656 C 47.128906 10.953125 46.929688 11.324219 47.035156 11.679688 M 44.382812 11.679688 L 45.972656 17.964844 C 46.53125 17.59375 47.074219 17.230469 47.605469 16.878906 L 45.667969 11.296875 C 45.5625 10.941406 45.1875 10.738281 44.835938 10.847656 C 44.480469 10.953125 44.277344 11.324219 44.382812 11.679688 M 41.605469 11.679688 L 43.597656 19.554688 C 44.1875 19.160156 44.773438 18.765625 45.351562 18.382812 L 42.890625 11.296875 C 42.785156 10.941406 42.410156 10.738281 42.054688 10.847656 C 41.703125 10.953125 41.5 11.324219 41.605469 11.679688 "/>
<path style=" stroke:none;fill-rule:nonzero;fill:rgb(0%,29.019165%,39.215088%);fill-opacity:1;" d="M 20.566406 13.996094 C 20.214844 13.890625 19.839844 14.089844 19.734375 14.445312 L 17.21875 21.683594 C 17.816406 22.085938 18.402344 22.488281 18.984375 22.882812 L 21.019531 14.828125 C 21.125 14.476562 20.921875 14.101562 20.566406 13.996094 M 24.0625 20.515625 C 23.710938 20.410156 23.335938 20.609375 23.230469 20.964844 L 21.875 24.871094 C 22.394531 25.230469 22.890625 25.578125 23.363281 25.910156 L 24.515625 21.347656 C 24.621094 20.996094 24.417969 20.621094 24.0625 20.515625 M 18.597656 10.902344 C 18.242188 10.796875 17.871094 10.996094 17.765625 11.351562 L 14.753906 20.019531 C 15.378906 20.441406 16.007812 20.863281 16.632812 21.285156 L 19.046875 11.734375 C 19.152344 11.382812 18.953125 11.007812 18.597656 10.902344 M 25.617188 23.554688 C 25.265625 23.449219 24.890625 23.648438 24.785156 24.003906 L 23.972656 26.34375 C 24.460938 26.691406 24.914062 27.015625 25.328125 27.320312 L 26.066406 24.386719 C 26.175781 24.035156 25.972656 23.660156 25.617188 23.554688 M 27.144531 26.328125 C 26.789062 26.222656 26.414062 26.421875 26.308594 26.777344 L 25.960938 27.785156 C 26.464844 28.160156 26.882812 28.484375 27.195312 28.746094 L 27.59375 27.164062 C 27.699219 26.808594 27.496094 26.433594 27.144531 26.328125 M 22.359375 17.367188 C 22.003906 17.261719 21.632812 17.460938 21.527344 17.816406 L 19.617188 23.316406 C 20.171875 23.695312 20.710938 24.066406 21.238281 24.429688 L 22.8125 18.199219 C 22.917969 17.847656 22.714844 17.472656 22.359375 17.367188 M 7.761719 10.902344 C 7.410156 10.796875 7.035156 10.996094 6.929688 11.351562 L 5.953125 14.164062 C 6.386719 14.449219 6.859375 14.761719 7.363281 15.09375 L 8.210938 11.734375 C 8.320312 11.382812 8.117188 11.007812 7.761719 10.902344 M 5.382812 10.902344 C 5.03125 10.796875 4.65625 10.996094 4.550781 11.351562 L 4.015625 12.886719 C 4.359375 13.113281 4.804688 13.40625 5.324219 13.75 L 5.835938 11.734375 C 5.941406 11.382812 5.738281 11.007812 5.382812 10.902344 M 10.257812 10.902344 C 9.902344 10.796875 9.527344 10.996094 9.421875 11.351562 L 7.980469 15.503906 C 8.464844 15.824219 8.972656 16.160156 9.5 16.511719 L 10.707031 11.734375 C 10.8125 11.382812 10.609375 11.007812 10.257812 10.902344 M 12.90625 10.902344 C 12.554688 10.796875 12.179688 10.996094 12.074219 11.351562 L 10.136719 16.933594 C 10.664062 17.285156 11.210938 17.648438 11.769531 18.019531 L 13.355469 11.734375 C 13.460938 11.382812 13.261719 11.007812 12.90625 10.902344 M 15.683594 10.902344 C 15.328125 10.796875 14.957031 10.996094 14.851562 11.351562 L 12.390625 18.4375 C 12.96875 18.820312 13.554688 19.214844 14.144531 19.609375 L 16.136719 11.734375 C 16.242188 11.382812 16.039062 11.007812 15.683594 10.902344 "/>
<path style=" stroke:none;fill-rule:nonzero;fill:rgb(21.960449%,57.647705%,60.784912%);fill-opacity:1;" d="M 34.808594 64.5 L 25.675781 64.101562 C 25.378906 64.101562 25.140625 63.859375 25.140625 63.5625 C 25.140625 63.265625 25.378906 63.027344 25.675781 63.027344 L 34.808594 62.632812 Z M 34.808594 64.5 "/>
<path style=" stroke:none;fill-rule:nonzero;fill:rgb(21.960449%,57.647705%,60.784912%);fill-opacity:1;" d="M 33.007812 70.960938 L 27.359375 68.617188 C 27.09375 68.492188 26.773438 68.609375 26.648438 68.878906 C 26.523438 69.144531 26.640625 69.464844 26.90625 69.589844 L 32.078125 72.28125 Z M 33.007812 70.960938 "/>
<path style=" stroke:none;fill-rule:nonzero;fill:rgb(21.960449%,57.647705%,60.784912%);fill-opacity:1;" d="M 34.632812 66.648438 L 26 65.507812 C 25.710938 65.453125 25.429688 65.648438 25.378906 65.941406 C 25.328125 66.234375 25.523438 66.511719 25.816406 66.5625 L 34.222656 68.425781 Z M 34.632812 66.648438 "/>
<path style=" stroke:none;fill-rule:nonzero;fill:rgb(21.960449%,57.647705%,60.784912%);fill-opacity:1;" d="M 34.207031 58.609375 L 25.816406 60.460938 C 25.527344 60.515625 25.332031 60.792969 25.382812 61.082031 C 25.433594 61.375 25.714844 61.570312 26.003906 61.519531 L 34.664062 60.378906 Z M 34.207031 58.609375 "/>
<path style=" stroke:none;fill-rule:nonzero;fill:rgb(21.960449%,57.647705%,60.784912%);fill-opacity:1;" d="M 32.191406 54.851562 L 27.019531 57.542969 C 26.75 57.667969 26.632812 57.984375 26.761719 58.253906 C 26.882812 58.523438 27.203125 58.636719 27.472656 58.511719 L 33.09375 56.183594 Z M 32.191406 54.851562 "/>
<path style=" stroke:none;fill-rule:nonzero;fill:rgb(21.960449%,57.647705%,60.784912%);fill-opacity:1;" d="M 21.511719 40.976562 L 21.511719 40.96875 C 21.511719 36.195312 24.65625 32.574219 26.546875 30.824219 L 26.550781 30.824219 C 26.667969 30.710938 26.828125 30.636719 27.007812 30.636719 C 27.367188 30.636719 27.664062 30.933594 27.664062 31.292969 C 27.664062 31.460938 27.597656 31.613281 27.492188 31.730469 L 27.496094 31.734375 C 25.652344 33.683594 23.375 36.910156 23.375 40.96875 L 23.375 40.976562 C 23.375 51.492188 36.242188 52.453125 36.242188 63.597656 L 36.242188 63.605469 C 36.242188 68.394531 33.078125 72.035156 31.191406 73.789062 L 31.1875 73.785156 C 31.070312 73.902344 30.910156 73.972656 30.730469 73.972656 C 30.371094 73.972656 30.078125 73.679688 30.078125 73.320312 C 30.078125 73.148438 30.144531 72.988281 30.253906 72.871094 C 32.101562 70.921875 34.378906 67.691406 34.378906 63.628906 L 34.378906 63.597656 C 34.378906 54.308594 21.511719 50.566406 21.511719 40.976562 "/>
<path style=" stroke:none;fill-rule:nonzero;fill:rgb(0%,29.019165%,39.215088%);fill-opacity:1;" d="M 1.601562 11.980469 C 5.621094 14.636719 17.105469 21.5625 27.917969 29.660156 C 27.917969 29.660156 34.351562 34.144531 34.351562 40.96875 L 34.351562 40.980469 C 34.351562 45.035156 32.101562 48.246094 30.261719 50.195312 L 30.265625 50.199219 C 30.152344 50.316406 30.078125 50.476562 30.078125 50.652344 C 30.078125 51.011719 30.375 51.308594 30.734375 51.308594 C 30.90625 51.308594 31.058594 51.242188 31.175781 51.136719 C 33.066406 49.398438 36.214844 45.785156 36.214844 40.980469 L 36.214844 40.96875 C 36.214844 34.144531 29.78125 29.660156 29.78125 29.660156 C 16.277344 19.546875 2.429688 10.925781 2.429688 10.925781 L 2.425781 10.925781 C 2.132812 10.695312 1.710938 10.75 1.484375 11.042969 C 1.257812 11.332031 1.292969 11.777344 1.601562 11.980469 M 21.488281 63.597656 L 21.488281 63.605469 C 21.488281 70.632812 28.136719 75.113281 28.566406 75.433594 L 28.570312 75.433594 C 28.667969 75.511719 28.792969 75.566406 28.929688 75.566406 C 29.242188 75.566406 29.496094 75.3125 29.496094 74.996094 C 29.496094 74.8125 29.410156 74.648438 29.273438 74.542969 C 27.753906 73.316406 23.351562 69.277344 23.351562 63.628906 L 23.351562 63.597656 C 23.351562 59.511719 25.628906 56.285156 27.476562 54.34375 L 27.476562 54.339844 C 27.589844 54.222656 27.660156 54.066406 27.660156 53.886719 C 27.660156 53.527344 27.367188 53.234375 27.007812 53.234375 C 26.835938 53.234375 26.675781 53.304688 26.558594 53.417969 C 24.671875 55.148438 21.488281 58.777344 21.488281 63.597656 "/>
<path style=" stroke:none;fill-rule:nonzero;fill:rgb(21.960449%,57.647705%,60.784912%);fill-opacity:1;" d="M 30.507812 27.765625 C 43.144531 18.492188 55.300781 10.925781 55.300781 10.925781 L 55.304688 10.925781 C 55.59375 10.695312 56.015625 10.75 56.242188 11.042969 C 56.472656 11.332031 56.433594 11.777344 56.128906 11.980469 C 52.277344 14.523438 41.578125 20.988281 31.179688 28.644531 C 31.085938 28.722656 30.96875 28.769531 30.835938 28.769531 C 30.53125 28.769531 30.28125 28.519531 30.28125 28.214844 C 30.28125 28.027344 30.371094 27.867188 30.507812 27.765625 "/>
<path style=" stroke:none;fill-rule:nonzero;fill:rgb(21.960449%,57.647705%,60.784912%);fill-opacity:1;" d="M 29.609375 27.171875 L 29.410156 1.515625 C 29.410156 1.238281 29.183594 1.015625 28.910156 1.015625 C 28.632812 1.015625 28.410156 1.238281 28.410156 1.515625 L 28.210938 27.171875 C 28.210938 27.558594 28.523438 27.871094 28.910156 27.871094 C 29.296875 27.871094 29.609375 27.558594 29.609375 27.171875 "/>
<path style=" stroke:none;fill-rule:nonzero;fill:rgb(0%,29.019165%,39.215088%);fill-opacity:1;" d="M 53.371094 39.605469 L 48.398438 39.605469 L 46.660156 42.308594 L 44.503906 42.308594 L 50.882812 32.398438 L 57.265625 42.308594 L 55.109375 42.308594 Z M 49.476562 37.949219 L 52.308594 37.949219 L 50.882812 35.746094 Z M 49.476562 37.949219 "/>
<path style=" stroke:none;fill-rule:nonzero;fill:rgb(0%,29.019165%,39.215088%);fill-opacity:1;" d="M 60.644531 40.648438 L 67.851562 40.648438 L 67.851562 42.304688 L 58.835938 42.304688 L 58.835938 33.0625 L 60.644531 33.0625 Z M 60.644531 40.648438 "/>
<path style=" stroke:none;fill-rule:nonzero;fill:rgb(0%,29.019165%,39.215088%);fill-opacity:1;" d="M 70.566406 40.648438 L 77.773438 40.648438 L 77.773438 42.304688 L 68.761719 42.304688 L 68.761719 33.0625 L 70.566406 33.0625 Z M 70.566406 40.648438 "/>
<path style=" stroke:none;fill-rule:nonzero;fill:rgb(0%,29.019165%,39.215088%);fill-opacity:1;" d="M 87.300781 39.605469 L 82.332031 39.605469 L 80.589844 42.308594 L 78.4375 42.308594 L 84.816406 32.398438 L 91.195312 42.308594 L 89.042969 42.308594 Z M 83.410156 37.949219 L 86.242188 37.949219 L 84.816406 35.746094 Z M 83.410156 37.949219 "/>
<path style=" stroke:none;fill-rule:nonzero;fill:rgb(0%,29.019165%,39.215088%);fill-opacity:1;" d="M 92.851562 42.304688 L 92.851562 32.296875 L 101.816406 39.339844 L 101.816406 33.0625 L 103.625 33.0625 L 103.625 43.003906 L 94.660156 36.09375 L 94.660156 42.304688 Z M 92.851562 42.304688 "/>
<path style=" stroke:none;fill-rule:nonzero;fill:rgb(0%,29.019165%,39.215088%);fill-opacity:1;" d="M 56.367188 52.882812 L 59.515625 46.867188 L 61.488281 46.867188 L 56.351562 56.859375 L 53.070312 50.183594 L 49.808594 56.859375 L 44.671875 46.867188 L 46.644531 46.867188 L 49.789062 52.867188 L 53.070312 46.039062 Z M 56.367188 52.882812 "/>
<path style=" stroke:none;fill-rule:nonzero;fill:rgb(0%,29.019165%,39.215088%);fill-opacity:1;" d="M 63.476562 46.867188 L 65.28125 46.867188 L 65.28125 56.113281 L 63.476562 56.113281 Z M 63.476562 46.867188 "/>
<path style=" stroke:none;fill-rule:nonzero;fill:rgb(0%,29.019165%,39.215088%);fill-opacity:1;" d="M 70.152344 54.457031 L 77.359375 54.457031 L 77.359375 56.113281 L 68.347656 56.113281 L 68.347656 46.867188 L 70.152344 46.867188 Z M 70.152344 54.457031 "/>
<path style=" stroke:none;fill-rule:nonzero;fill:rgb(0%,29.019165%,39.215088%);fill-opacity:1;" d="M 83.027344 56.445312 C 81.289062 56.445312 79.480469 56.015625 78.523438 55.351562 L 78.523438 53.179688 C 79.433594 53.992188 81.402344 54.789062 83.0625 54.789062 C 84.867188 54.789062 86.011719 54.191406 86.011719 53.578125 C 86.011719 52.816406 84.585938 52.570312 83.078125 52.335938 C 80.890625 51.988281 78.304688 51.523438 78.304688 49.304688 C 78.304688 47.398438 80.691406 46.601562 82.878906 46.601562 C 84.417969 46.601562 86.109375 46.933594 86.972656 47.582031 L 86.972656 49.550781 C 85.761719 48.707031 84.269531 48.261719 82.730469 48.261719 C 81.933594 48.261719 80.226562 48.476562 80.226562 49.320312 C 80.226562 50.164062 81.703125 50.414062 83.308594 50.664062 C 85.496094 51.011719 87.898438 51.375 87.898438 53.480469 C 87.898438 55.652344 85.445312 56.445312 83.027344 56.445312 "/>
<path style=" stroke:none;fill-rule:nonzero;fill:rgb(0%,29.019165%,39.215088%);fill-opacity:1;" d="M 96.167969 46.519531 C 99.761719 46.519531 102.660156 48.757812 102.660156 51.492188 C 102.660156 54.226562 99.761719 56.445312 96.167969 56.445312 C 92.589844 56.445312 89.671875 54.226562 89.671875 51.492188 C 89.671875 48.757812 92.589844 46.519531 96.167969 46.519531 M 96.167969 54.789062 C 98.71875 54.789062 100.773438 53.332031 100.773438 51.492188 C 100.773438 49.652344 98.71875 48.175781 96.167969 48.175781 C 93.632812 48.175781 91.5625 49.652344 91.5625 51.492188 C 91.5625 53.332031 93.632812 54.789062 96.167969 54.789062 "/>
<path style=" stroke:none;fill-rule:nonzero;fill:rgb(0%,29.019165%,39.215088%);fill-opacity:1;" d="M 104.152344 56.113281 L 104.152344 46.105469 L 113.117188 53.148438 L 113.117188 46.867188 L 114.921875 46.867188 L 114.921875 56.808594 L 105.960938 49.902344 L 105.960938 56.113281 Z M 104.152344 56.113281 "/>
<path style=" stroke:none;fill-rule:nonzero;fill:rgb(0%,29.019165%,39.215088%);fill-opacity:1;" d="M 51.828125 68.597656 C 53.519531 68.597656 55.160156 67.816406 56.21875 66.507812 L 56.21875 68.925781 C 54.976562 69.773438 53.453125 70.253906 51.828125 70.253906 C 48.234375 70.253906 45.332031 68.03125 45.332031 65.300781 C 45.332031 62.566406 48.234375 60.328125 51.828125 60.328125 C 53.453125 60.328125 54.992188 60.824219 56.21875 61.671875 L 56.21875 64.105469 C 55.175781 62.796875 53.519531 61.984375 51.828125 61.984375 C 49.277344 61.984375 47.222656 63.460938 47.222656 65.300781 C 47.222656 67.136719 49.277344 68.597656 51.828125 68.597656 "/>
<path style=" stroke:none;fill-rule:nonzero;fill:rgb(0%,29.019165%,39.215088%);fill-opacity:1;" d="M 58.953125 60.675781 L 68.148438 60.675781 L 68.148438 62.332031 L 60.777344 62.332031 L 60.777344 64.253906 L 66.988281 64.253906 L 66.988281 65.910156 L 60.757812 65.910156 L 60.757812 68.265625 L 68.148438 68.265625 L 68.148438 69.921875 L 58.953125 69.921875 Z M 58.953125 60.675781 "/>
<path style=" stroke:none;fill-rule:nonzero;fill:rgb(0%,29.019165%,39.215088%);fill-opacity:1;" d="M 70.550781 69.921875 L 70.550781 59.914062 L 79.515625 66.957031 L 79.515625 60.675781 L 81.320312 60.675781 L 81.320312 70.617188 L 72.359375 63.707031 L 72.359375 69.921875 Z M 70.550781 69.921875 "/>
<path style=" stroke:none;fill-rule:nonzero;fill:rgb(0%,29.019165%,39.215088%);fill-opacity:1;" d="M 82.28125 62.332031 L 82.28125 60.675781 L 93.035156 60.675781 L 93.035156 62.332031 L 88.5625 62.332031 L 88.5625 69.921875 L 86.757812 69.921875 L 86.757812 62.332031 Z M 82.28125 62.332031 "/>
<path style=" stroke:none;fill-rule:nonzero;fill:rgb(0%,29.019165%,39.215088%);fill-opacity:1;" d="M 95.753906 69.921875 L 93.945312 69.921875 L 93.945312 60.675781 L 99.5625 60.675781 C 101.253906 60.675781 103.191406 61.324219 103.191406 63.328125 C 103.191406 64.753906 102.28125 65.480469 101.15625 65.796875 L 103.804688 69.921875 L 101.652344 69.921875 L 99.164062 65.996094 L 95.753906 65.996094 Z M 95.753906 64.335938 L 99.398438 64.335938 C 100.789062 64.335938 101.304688 63.988281 101.304688 63.328125 C 101.304688 62.679688 100.789062 62.332031 99.398438 62.332031 L 95.753906 62.332031 Z M 95.753906 64.335938 "/>
<path style=" stroke:none;fill-rule:nonzero;fill:rgb(0%,29.019165%,39.215088%);fill-opacity:1;" d="M 106.375 60.675781 L 115.570312 60.675781 L 115.570312 62.332031 L 108.195312 62.332031 L 108.195312 64.253906 L 114.410156 64.253906 L 114.410156 65.910156 L 108.179688 65.910156 L 108.179688 68.265625 L 115.570312 68.265625 L 115.570312 69.921875 L 106.375 69.921875 Z M 106.375 60.675781 "/>
</g>
</svg>
